<?xml version="1.0" encoding="utf-8"?>
<svg xmlns="http://www.w3.org/2000/svg" xmlns:xlink="http://www.w3.org/1999/xlink" style="margin: auto; background: rgb(46, 48, 47); display: block; z-index: 1; position: relative; shape-rendering: auto;" width="1920" height="1032" preserveAspectRatio="xMidYMid" viewBox="0 0 1920 1032">
<g transform="translate(960,516) scale(1,1) translate(-960,-516)"><path d="M-100 789.98C-63.9 807.94 -61.19 800.25 -31.61 800.25S5.03 798.87 36.77 798.87S76.23 776.84 105.16 776.84S142.64 800.25 173.55 800.25S210.98 785.98 241.94 785.98S277.91 770.92 310.32 770.92S349.72 810.5 378.71 810.5S418.64 757.23 447.1 757.23S482.1 809.2 515.48 809.2S555.5 787.73 583.87 787.73S623.81 770.23 652.26 770.23S691.57 796.11 720.65 796.11S755.91 780.95 789.03 780.95S824.43 787.66 857.42 787.66S895.33 793.66 925.81 793.66S964.9 764.69 994.19 764.69S1034.13 765.88 1062.58 765.88S1098.57 755.27 1130.97 755.27S1170.76 760.01 1199.35 760.01S1236.83 793.66 1267.74 793.66S1302.47 795.22 1336.13 795.22S1372.01 804.78 1404.52 804.78S1443.42 774.45 1472.9 774.45S1512.77 754.46 1541.29 754.46S1576.71 781.22 1609.68 781.22S1648.68 812.49 1678.06 812.49S1712.88 792.91 1746.45 792.91S1785.97 788.24 1814.84 788.24S1849.35 789.42 1883.23 789.42S1917.69 761.05 1951.61 761.05S1988.17 791.07 2020 791.07S2058.72 812.35 2088.39 812.35L2020 1032 L-100 1032 Z" fill="#f6ca5a" stroke-width="0">
  <animate attributeName="d" dur="17.5s" repeatCount="indefinite" values="M-100 789.98C-63.9 807.94 -61.19 800.25 -31.61 800.25S5.03 798.87 36.77 798.87S76.23 776.84 105.16 776.84S142.64 800.25 173.55 800.25S210.98 785.98 241.94 785.98S277.91 770.92 310.32 770.92S349.72 810.5 378.71 810.5S418.64 757.23 447.1 757.23S482.1 809.2 515.48 809.2S555.5 787.73 583.87 787.73S623.81 770.23 652.26 770.23S691.57 796.11 720.65 796.11S755.91 780.95 789.03 780.95S824.43 787.66 857.42 787.66S895.33 793.66 925.81 793.66S964.9 764.69 994.19 764.69S1034.13 765.88 1062.58 765.88S1098.57 755.27 1130.97 755.27S1170.76 760.01 1199.35 760.01S1236.83 793.66 1267.74 793.66S1302.47 795.22 1336.13 795.22S1372.01 804.78 1404.52 804.78S1443.42 774.45 1472.9 774.45S1512.77 754.46 1541.29 754.46S1576.71 781.22 1609.68 781.22S1648.68 812.49 1678.06 812.49S1712.88 792.91 1746.45 792.91S1785.97 788.24 1814.84 788.24S1849.35 789.42 1883.23 789.42S1917.69 761.05 1951.61 761.05S1988.17 791.07 2020 791.07S2058.72 812.35 2088.39 812.35L2020 1032 L-100 1032 Z;M-100 793.05C-60.31 769.33 -60.04 804.34 -31.61 804.34S8.45 757.31 36.77 757.31S72.88 762.71 105.16 762.71S143.44 796.95 173.55 796.95S211.09 795.6 241.94 795.6S280.74 774.81 310.32 774.81S347.77 757.23 378.71 757.23S414.54 788.49 447.1 788.49S483.26 761.65 515.48 761.65S555.14 767.88 583.87 767.88S621.69 777.92 652.26 777.92S690.43 771.36 720.65 771.36S758.82 769.29 789.03 769.29S829.1 794.75 857.42 794.75S895.1 797.13 925.81 797.13S966.03 776 994.19 776S1030.58 768.08 1062.58 768.08S1099.68 761.01 1130.97 761.01S1165.25 802.15 1199.35 802.15S1238.43 790.21 1267.74 790.21S1306.38 755.8 1336.13 755.8S1370.41 785.05 1404.52 785.05S1439.29 795.15 1472.9 795.15S1510.99 789.92 1541.29 789.92S1576.41 789.61 1609.68 789.61S1648.46 754.74 1678.06 754.74S1713.99 796.45 1746.45 796.45S1783.65 791.36 1814.84 791.36S1849.64 806.62 1883.23 806.62S1919.95 764.24 1951.61 764.24S1987.6 759.51 2020 759.51S2058.41 786.77 2088.39 786.77L2020 1032 L-100 1032 Z;M-100 789.98C-63.9 807.94 -61.19 800.25 -31.61 800.25S5.03 798.87 36.77 798.87S76.23 776.84 105.16 776.84S142.64 800.25 173.55 800.25S210.98 785.98 241.94 785.98S277.91 770.92 310.32 770.92S349.72 810.5 378.71 810.5S418.64 757.23 447.1 757.23S482.1 809.2 515.48 809.2S555.5 787.73 583.87 787.73S623.81 770.23 652.26 770.23S691.57 796.11 720.65 796.11S755.91 780.95 789.03 780.95S824.43 787.66 857.42 787.66S895.33 793.66 925.81 793.66S964.9 764.69 994.19 764.69S1034.13 765.88 1062.58 765.88S1098.57 755.27 1130.97 755.27S1170.76 760.01 1199.35 760.01S1236.83 793.66 1267.74 793.66S1302.47 795.22 1336.13 795.22S1372.01 804.78 1404.52 804.78S1443.42 774.45 1472.9 774.45S1512.77 754.46 1541.29 754.46S1576.71 781.22 1609.68 781.22S1648.68 812.49 1678.06 812.49S1712.88 792.91 1746.45 792.91S1785.97 788.24 1814.84 788.24S1849.35 789.42 1883.23 789.42S1917.69 761.05 1951.61 761.05S1988.17 791.07 2020 791.07S2058.72 812.35 2088.39 812.35L2020 1032 L-100 1032 Z"></animate>
  <animateTransform attributeName="transform" type="translate" dur="17.5s" begin="0s" repeatCount="indefinite" values="0;10;0" calcMode="spline" keySplines="0.3 0 0.7 1;0.3 0 0.7 1"></animateTransform>
</path><path d="M-100 802.03C-64.43 790.45 -64.4 852.91 -29 852.91S7.26 829.86 42.01 829.86S81.41 805.22 113.01 805.22S150.82 796.56 184.02 796.56S224.83 843.73 255.02 843.73S295.41 833.54 326.03 833.54S361.79 838.02 397.03 838.02S434.01 815.58 468.04 815.58S507.57 812.99 539.04 812.99S576.21 827.14 610.05 827.14S647.55 854.83 681.05 854.83S718.69 815.48 752.06 815.48S793.13 801.95 823.06 801.95S860.01 808.11 894.07 808.11S935.22 814.27 965.07 814.27S1006.41 791.69 1036.08 791.69S1074.29 810.66 1107.08 810.66S1145.19 817.77 1178.09 817.77S1218.9 810.64 1249.09 810.64S1289.51 829.57 1320.1 829.57S1360.1 836.61 1391.1 836.61S1428.75 815.52 1462.11 815.52S1500.53 801.8 1533.11 801.8S1569.01 801.39 1604.11 801.39S1644.69 859.62 1675.12 859.62S1715.01 824.18 1746.12 824.18S1782.55 811.66 1817.13 811.66S1858.04 809.73 1888.13 809.73S1929.55 824.67 1959.14 824.67S1996.42 803.57 2030.14 803.57L2020 1032 L-100 1032 Z" fill="#edd26c" stroke-width="0">
  <animate attributeName="d" dur="15s" repeatCount="indefinite" values="M-100 802.03C-64.43 790.45 -64.4 852.91 -29 852.91S7.26 829.86 42.01 829.86S81.41 805.22 113.01 805.22S150.82 796.56 184.02 796.56S224.83 843.73 255.02 843.73S295.41 833.54 326.03 833.54S361.79 838.02 397.03 838.02S434.01 815.58 468.04 815.58S507.57 812.99 539.04 812.99S576.21 827.14 610.05 827.14S647.55 854.83 681.05 854.83S718.69 815.48 752.06 815.48S793.13 801.95 823.06 801.95S860.01 808.11 894.07 808.11S935.22 814.27 965.07 814.27S1006.41 791.69 1036.08 791.69S1074.29 810.66 1107.08 810.66S1145.19 817.77 1178.09 817.77S1218.9 810.64 1249.09 810.64S1289.51 829.57 1320.1 829.57S1360.1 836.61 1391.1 836.61S1428.75 815.52 1462.11 815.52S1500.53 801.8 1533.11 801.8S1569.01 801.39 1604.11 801.39S1644.69 859.62 1675.12 859.62S1715.01 824.18 1746.12 824.18S1782.55 811.66 1817.13 811.66S1858.04 809.73 1888.13 809.73S1929.55 824.67 1959.14 824.67S1996.42 803.57 2030.14 803.57L2020 1032 L-100 1032 Z;M-100 806.69C-59.35 843.16 -60.1 829.02 -29 829.02S10.43 822.11 42.01 822.11S77.75 822.55 113.01 822.55S154.27 816.5 184.02 816.5S219.75 849.95 255.02 849.95S292.83 804.91 326.03 804.91S364.51 851.69 397.03 851.69S437.64 828.87 468.04 828.87S505.75 836.92 539.04 836.92S575.78 808.94 610.05 808.94S647.77 827.07 681.05 827.07S722.36 844.12 752.06 844.12S791.27 847.08 823.06 847.08S861.27 797.08 894.07 797.08S932.44 829.92 965.07 829.92S1005.41 823.43 1036.08 823.43S1073.39 805.32 1107.08 805.32S1143.93 832.46 1178.09 832.46S1217.29 814.77 1249.09 814.77S1289.8 805.23 1320.1 805.23S1358.03 838.42 1391.1 838.42S1431.85 847.41 1462.11 847.41S1499.5 840.84 1533.11 840.84S1574.14 824.8 1604.11 824.8S1641.4 858.98 1675.12 858.98S1712.4 808.63 1746.12 808.63S1786.71 841.89 1817.13 841.89S1856.88 797.53 1888.13 797.53S1929.65 798.97 1959.14 798.97S1995.46 794.42 2030.14 794.42L2020 1032 L-100 1032 Z;M-100 802.03C-64.43 790.45 -64.4 852.91 -29 852.91S7.26 829.86 42.01 829.86S81.41 805.22 113.01 805.22S150.82 796.56 184.02 796.56S224.83 843.73 255.02 843.73S295.41 833.54 326.03 833.54S361.79 838.02 397.03 838.02S434.01 815.58 468.04 815.58S507.57 812.99 539.04 812.99S576.21 827.14 610.05 827.14S647.55 854.83 681.05 854.83S718.69 815.48 752.06 815.48S793.13 801.95 823.06 801.95S860.01 808.11 894.07 808.11S935.22 814.27 965.07 814.27S1006.41 791.69 1036.08 791.69S1074.29 810.66 1107.08 810.66S1145.19 817.77 1178.09 817.77S1218.9 810.64 1249.09 810.64S1289.51 829.57 1320.1 829.57S1360.1 836.61 1391.1 836.61S1428.75 815.52 1462.11 815.52S1500.53 801.8 1533.11 801.8S1569.01 801.39 1604.11 801.39S1644.69 859.62 1675.12 859.62S1715.01 824.18 1746.12 824.18S1782.55 811.66 1817.13 811.66S1858.04 809.73 1888.13 809.73S1929.55 824.67 1959.14 824.67S1996.42 803.57 2030.14 803.57L2020 1032 L-100 1032 Z"></animate>
  <animateTransform attributeName="transform" type="translate" dur="15s" begin="-2.142857142857143s" repeatCount="indefinite" values="0;10;0" calcMode="spline" keySplines="0.3 0 0.7 1;0.3 0 0.7 1"></animateTransform>
</path><path d="M-100 866.76C-60.88 828.9 -60.11 885.92 -26.17 885.92S15.54 863.67 47.66 863.67S85.11 897.02 121.49 897.02S163.57 863.87 195.32 863.87S233.11 857.86 269.15 857.86S306.85 843.49 342.99 843.49S385.06 828.88 416.82 828.88S459.02 869.31 490.65 869.31S532.31 870.38 564.48 870.38S603.77 853.85 638.31 853.85S676.09 862.03 712.14 862.03S751.64 876.86 785.97 876.86S823.26 874.97 859.8 874.97S898.33 865.31 933.63 865.31S973.21 892.68 1007.46 892.68S1048.31 844.02 1081.29 844.02S1120.13 900.67 1155.12 900.67S1192.8 852.62 1228.96 852.62S1270.49 860.3 1302.79 860.3S1339.97 858.42 1376.62 858.42S1414.64 906.09 1450.45 906.09S1492.18 829.58 1524.28 829.58S1566.04 873.26 1598.11 873.26S1637.86 868.25 1671.94 868.25S1712.1 902.99 1745.77 902.99S1785.66 844.3 1819.6 844.3S1860 882.45 1893.43 882.45S1931.94 848.93 1967.26 848.93S2005.51 897.59 2041.09 897.59L2020 1032 L-100 1032 Z" fill="#e6d87f" stroke-width="0">
  <animate attributeName="d" dur="12.5s" repeatCount="indefinite" values="M-100 866.76C-60.88 828.9 -60.11 885.92 -26.17 885.92S15.54 863.67 47.66 863.67S85.11 897.02 121.49 897.02S163.57 863.87 195.32 863.87S233.11 857.86 269.15 857.86S306.85 843.49 342.99 843.49S385.06 828.88 416.82 828.88S459.02 869.31 490.65 869.31S532.31 870.38 564.48 870.38S603.77 853.85 638.31 853.85S676.09 862.03 712.14 862.03S751.64 876.86 785.97 876.86S823.26 874.97 859.8 874.97S898.33 865.31 933.63 865.31S973.21 892.68 1007.46 892.68S1048.31 844.02 1081.29 844.02S1120.13 900.67 1155.12 900.67S1192.8 852.62 1228.96 852.62S1270.49 860.3 1302.79 860.3S1339.97 858.42 1376.62 858.42S1414.64 906.09 1450.45 906.09S1492.18 829.58 1524.28 829.58S1566.04 873.26 1598.11 873.26S1637.86 868.25 1671.94 868.25S1712.1 902.99 1745.77 902.99S1785.66 844.3 1819.6 844.3S1860 882.45 1893.43 882.45S1931.94 848.93 1967.26 848.93S2005.51 897.59 2041.09 897.59L2020 1032 L-100 1032 Z;M-100 845.23C-59.72 856.48 -60.81 866.14 -26.17 866.14S13.34 864.87 47.66 864.87S89.86 854 121.49 854S163.69 828.36 195.32 828.36S236.37 888.54 269.15 888.54S308.26 879.84 342.99 879.84S383.25 869.62 416.82 869.62S454.6 860.59 490.65 860.59S531.21 871.21 564.48 871.21S602.99 867.61 638.31 867.61S677.84 886.01 712.14 886.01S754.86 852.6 785.97 852.6S825.34 887.08 859.8 887.08S902.33 871.55 933.63 871.55S972.02 861.43 1007.46 861.43S1046.22 852.71 1081.29 852.71S1122.18 861.86 1155.12 861.86S1197.94 853.31 1228.96 853.31S1271.12 866.63 1302.79 866.63S1341.48 855.11 1376.62 855.11S1414.7 853.46 1450.45 853.46S1489.26 857.85 1524.28 857.85S1561.41 892.29 1598.11 892.29S1639.37 837.64 1671.94 837.64S1713.04 876.19 1745.77 876.19S1782.95 886.76 1819.6 886.76S1858.55 837.99 1893.43 837.99S1930.61 908.11 1967.26 908.11S2008.08 892.93 2041.09 892.93L2020 1032 L-100 1032 Z;M-100 866.76C-60.88 828.9 -60.11 885.92 -26.17 885.92S15.54 863.67 47.66 863.67S85.11 897.02 121.49 897.02S163.57 863.87 195.32 863.87S233.11 857.86 269.15 857.86S306.85 843.49 342.99 843.49S385.06 828.88 416.82 828.88S459.02 869.31 490.65 869.31S532.31 870.38 564.48 870.38S603.77 853.85 638.31 853.85S676.09 862.03 712.14 862.03S751.64 876.86 785.97 876.86S823.26 874.97 859.8 874.97S898.33 865.31 933.63 865.31S973.21 892.68 1007.46 892.68S1048.31 844.02 1081.29 844.02S1120.13 900.67 1155.12 900.67S1192.8 852.62 1228.96 852.62S1270.49 860.3 1302.79 860.3S1339.97 858.42 1376.62 858.42S1414.64 906.09 1450.45 906.09S1492.18 829.58 1524.28 829.58S1566.04 873.26 1598.11 873.26S1637.86 868.25 1671.94 868.25S1712.1 902.99 1745.77 902.99S1785.66 844.3 1819.6 844.3S1860 882.45 1893.43 882.45S1931.94 848.93 1967.26 848.93S2005.51 897.59 2041.09 897.59L2020 1032 L-100 1032 Z"></animate>
  <animateTransform attributeName="transform" type="translate" dur="12.5s" begin="-3.5714285714285716s" repeatCount="indefinite" values="0;10;0" calcMode="spline" keySplines="0.3 0 0.7 1;0.3 0 0.7 1"></animateTransform>
</path><path d="M-100 945.96C-61.4 953.81 -60.12 918.81 -23.11 918.81S18.43 878.38 53.78 878.38S97.07 954.03 130.67 954.03S174.28 932.16 207.56 932.16S246.86 951.07 284.46 951.07S325.69 947.72 361.35 947.72S405.76 938.29 438.24 938.29S481.17 919.05 515.13 919.05S557.69 926.8 592.02 926.8S634.25 898.14 668.91 898.14S707.77 931.09 745.8 931.09S787.8 917.19 822.69 917.19S864.49 939.77 899.59 939.77S938.37 954.53 976.48 954.53S1019.36 950.01 1053.37 950.01S1096.18 924.61 1130.26 924.61S1173.21 916.19 1207.15 916.19S1251.1 949.41 1284.04 949.41S1324.14 952.58 1360.93 952.58S1401.51 913 1437.82 913S1481.14 906.85 1514.72 906.85S1558.21 883.27 1591.61 883.27S1635.64 934.45 1668.5 934.45S1707.6 920.59 1745.39 920.59S1784.51 949.99 1822.28 949.99S1864.31 880.65 1899.17 880.65S1940.37 905.17 1976.06 905.17S2019.32 891.41 2052.95 891.41L2020 1032 L-100 1032 Z" fill="#e0de92" stroke-width="0">
  <animate attributeName="d" dur="10s" repeatCount="indefinite" values="M-100 945.96C-61.4 953.81 -60.12 918.81 -23.11 918.81S18.43 878.38 53.78 878.38S97.07 954.03 130.67 954.03S174.28 932.16 207.56 932.16S246.86 951.07 284.46 951.07S325.69 947.72 361.35 947.72S405.76 938.29 438.24 938.29S481.17 919.05 515.13 919.05S557.69 926.8 592.02 926.8S634.25 898.14 668.91 898.14S707.77 931.09 745.8 931.09S787.8 917.19 822.69 917.19S864.49 939.77 899.59 939.77S938.37 954.53 976.48 954.53S1019.36 950.01 1053.37 950.01S1096.18 924.61 1130.26 924.61S1173.21 916.19 1207.15 916.19S1251.1 949.41 1284.04 949.41S1324.14 952.58 1360.93 952.58S1401.51 913 1437.82 913S1481.14 906.85 1514.72 906.85S1558.21 883.27 1591.61 883.27S1635.64 934.45 1668.5 934.45S1707.6 920.59 1745.39 920.59S1784.51 949.99 1822.28 949.99S1864.31 880.65 1899.17 880.65S1940.37 905.17 1976.06 905.17S2019.32 891.41 2052.95 891.41L2020 1032 L-100 1032 Z;M-100 908.17C-61.33 920.48 -60.78 905 -23.11 905S18.14 878.05 53.78 878.05S95.16 900 130.67 900S172.35 904.2 207.56 904.2S249.76 914.42 284.46 914.42S325.49 912.42 361.35 912.42S405.61 909.07 438.24 909.07S479.41 876.16 515.13 876.16S556.32 930.47 592.02 930.47S633.55 911.69 668.91 911.69S709.92 930.33 745.8 930.33S785.58 870.4 822.69 870.4S866.22 911.58 899.59 911.58S942.22 865.14 976.48 865.14S1020.67 900.3 1053.37 900.3S1092.13 889.46 1130.26 889.46S1173.65 943.81 1207.15 943.81S1251.32 901.91 1284.04 901.91S1326.27 932.51 1360.93 932.51S1403.42 871.17 1437.82 871.17S1478.05 933.51 1514.72 933.51S1554.82 947.45 1591.61 947.45S1633.7 923.47 1668.5 923.47S1708.02 880.27 1745.39 880.27S1785.51 935.28 1822.28 935.28S1860.8 906.7 1899.17 906.7S1939.8 915.25 1976.06 915.25S2015.53 905.5 2052.95 905.5L2020 1032 L-100 1032 Z;M-100 945.96C-61.4 953.81 -60.12 918.81 -23.11 918.81S18.43 878.38 53.78 878.38S97.07 954.03 130.67 954.03S174.28 932.16 207.56 932.16S246.86 951.07 284.46 951.07S325.69 947.72 361.35 947.72S405.76 938.29 438.24 938.29S481.17 919.05 515.13 919.05S557.69 926.8 592.02 926.8S634.25 898.14 668.91 898.14S707.77 931.09 745.8 931.09S787.8 917.19 822.69 917.19S864.49 939.77 899.59 939.77S938.37 954.53 976.48 954.53S1019.36 950.01 1053.37 950.01S1096.18 924.61 1130.26 924.61S1173.21 916.19 1207.15 916.19S1251.1 949.41 1284.04 949.41S1324.14 952.58 1360.93 952.58S1401.51 913 1437.82 913S1481.14 906.85 1514.72 906.85S1558.21 883.27 1591.61 883.27S1635.64 934.45 1668.5 934.45S1707.6 920.59 1745.39 920.59S1784.51 949.99 1822.28 949.99S1864.31 880.65 1899.17 880.65S1940.37 905.17 1976.06 905.17S2019.32 891.41 2052.95 891.41L2020 1032 L-100 1032 Z"></animate>
  <animateTransform attributeName="transform" type="translate" dur="10s" begin="-4.285714285714286s" repeatCount="indefinite" values="0;10;0" calcMode="spline" keySplines="0.3 0 0.7 1;0.3 0 0.7 1"></animateTransform>
</path><path d="M-100 920.06C-54.45 943.07 -59.01 955.34 -19.78 955.34S23.04 926.69 60.43 926.69S104.97 969.68 140.65 969.68S183.05 905.33 220.86 905.33S266.89 982.18 301.08 982.18S347.12 954.56 381.3 954.56S425.02 996.94 461.51 996.94S503.23 931.64 541.73 931.64S583.52 978.9 621.95 978.9S663.96 907.89 702.16 907.89S744.74 985.37 782.38 985.37S827.94 915.36 862.59 915.36S908.53 960.27 942.81 960.27S985.98 925.29 1023.03 925.29S1068.87 996.98 1103.24 996.98S1144.07 933.97 1183.46 933.97S1228.62 982.48 1263.68 982.48S1309.59 950.95 1343.89 950.95S1386.47 950.83 1424.11 950.83S1467.5 917.9 1504.32 917.9S1549.34 942.31 1584.54 942.31S1628.43 988.95 1664.76 988.95S1706.19 914.35 1744.97 914.35S1790.42 916.18 1825.19 916.18S1869.05 992.84 1905.41 992.84S1948.71 951.71 1985.62 951.71S2028.23 968.19 2065.84 968.19L2020 1032 L-100 1032 Z" fill="#dde2a5" stroke-width="0">
  <animate attributeName="d" dur="7.5s" repeatCount="indefinite" values="M-100 920.06C-54.45 943.07 -59.01 955.34 -19.78 955.34S23.04 926.69 60.43 926.69S104.97 969.68 140.65 969.68S183.05 905.33 220.86 905.33S266.89 982.18 301.08 982.18S347.12 954.56 381.3 954.56S425.02 996.94 461.51 996.94S503.23 931.64 541.73 931.64S583.52 978.9 621.95 978.9S663.96 907.89 702.16 907.89S744.74 985.37 782.38 985.37S827.94 915.36 862.59 915.36S908.53 960.27 942.81 960.27S985.98 925.29 1023.03 925.29S1068.87 996.98 1103.24 996.98S1144.07 933.97 1183.46 933.97S1228.62 982.48 1263.68 982.48S1309.59 950.95 1343.89 950.95S1386.47 950.83 1424.11 950.83S1467.5 917.9 1504.32 917.9S1549.34 942.31 1584.54 942.31S1628.43 988.95 1664.76 988.95S1706.19 914.35 1744.97 914.35S1790.42 916.18 1825.19 916.18S1869.05 992.84 1905.41 992.84S1948.71 951.71 1985.62 951.71S2028.23 968.19 2065.84 968.19L2020 1032 L-100 1032 Z;M-100 952.21C-56.71 927.24 -55.83 952.29 -19.78 952.29S23.91 913.71 60.43 913.71S102.41 968.98 140.65 968.98S181.52 913.88 220.86 913.88S263.09 996.94 301.08 996.94S341.29 944.81 381.3 944.81S423.6 967.46 461.51 967.46S506.78 938.49 541.73 938.49S583.43 990.02 621.95 990.02S665.8 927.93 702.16 927.93S745.35 986.97 782.38 986.97S825.13 933.49 862.59 933.49S903.2 934.89 942.81 934.89S988.63 908.05 1023.03 908.05S1068.88 947.5 1103.24 947.5S1148.43 935.05 1183.46 935.05S1227.02 955.83 1263.68 955.83S1307.18 939.3 1343.89 939.3S1389.82 984.95 1424.11 984.95S1464.93 933.6 1504.32 933.6S1544.74 974.82 1584.54 974.82S1627.38 929.73 1664.76 929.73S1709.95 902.71 1744.97 902.71S1785.16 922.24 1825.19 922.24S1867.54 999.35 1905.41 999.35S1948.8 951.48 1985.62 951.48S2029.86 953.56 2065.84 953.56L2020 1032 L-100 1032 Z;M-100 920.06C-54.45 943.07 -59.01 955.34 -19.78 955.34S23.04 926.69 60.43 926.69S104.97 969.68 140.65 969.68S183.05 905.33 220.86 905.33S266.89 982.18 301.08 982.18S347.12 954.56 381.3 954.56S425.02 996.94 461.51 996.94S503.23 931.64 541.73 931.64S583.52 978.9 621.95 978.9S663.96 907.89 702.16 907.89S744.74 985.37 782.38 985.37S827.94 915.36 862.59 915.36S908.53 960.27 942.81 960.27S985.98 925.29 1023.03 925.29S1068.87 996.98 1103.24 996.98S1144.07 933.97 1183.46 933.97S1228.62 982.48 1263.68 982.48S1309.59 950.95 1343.89 950.95S1386.47 950.83 1424.11 950.83S1467.5 917.9 1504.32 917.9S1549.34 942.31 1584.54 942.31S1628.43 988.95 1664.76 988.95S1706.19 914.35 1744.97 914.35S1790.42 916.18 1825.19 916.18S1869.05 992.84 1905.41 992.84S1948.71 951.71 1985.62 951.71S2028.23 968.19 2065.84 968.19L2020 1032 L-100 1032 Z"></animate>
  <animateTransform attributeName="transform" type="translate" dur="7.5s" begin="-4.285714285714286s" repeatCount="indefinite" values="0;10;0" calcMode="spline" keySplines="0.3 0 0.7 1;0.3 0 0.7 1"></animateTransform>
</path><path d="M-100 959.88C-56.15 959.73 -53.17 1042.91 -16.16 1042.91S31.55 952.77 67.68 952.77S115.61 1030.73 151.53 1030.73S195.68 950.52 235.37 950.52S281.45 1049.81 319.21 1049.81S363.6 988.06 403.05 988.06S445.12 1042.75 486.89 1042.75S533.05 945.51 570.73 945.51S617.2 1035.81 654.58 1035.81S698.78 966.98 738.42 966.98S782.04 1046.6 822.26 1046.6S868.26 944.22 906.1 944.22S949.04 1020.13 989.94 1020.13S1035.05 953.2 1073.79 953.2S1118.48 996.63 1157.63 996.63S1201.67 943.35 1241.47 943.35S1285.07 1015.05 1325.31 1015.05S1369.05 941.95 1409.15 941.95S1453.59 952.62 1492.99 952.62S1538.87 952.92 1576.84 952.92S1624.68 1038.66 1660.68 1038.66S1705.47 970.22 1744.52 970.22S1791.39 963.52 1828.36 963.52S1876.17 971.09 1912.2 971.09S1959.91 1038.08 1996.05 1038.08S2043.89 1003.81 2079.89 1003.81L2020 1032 L-100 1032 Z" fill="#dce6b8" stroke-width="0">
  <animate attributeName="d" dur="5s" repeatCount="indefinite" values="M-100 959.88C-56.15 959.73 -53.17 1042.91 -16.16 1042.91S31.55 952.77 67.68 952.77S115.61 1030.73 151.53 1030.73S195.68 950.52 235.37 950.52S281.45 1049.81 319.21 1049.81S363.6 988.06 403.05 988.06S445.12 1042.75 486.89 1042.75S533.05 945.51 570.73 945.51S617.2 1035.81 654.58 1035.81S698.78 966.98 738.42 966.98S782.04 1046.6 822.26 1046.6S868.26 944.22 906.1 944.22S949.04 1020.13 989.94 1020.13S1035.05 953.2 1073.79 953.2S1118.48 996.63 1157.63 996.63S1201.67 943.35 1241.47 943.35S1285.07 1015.05 1325.31 1015.05S1369.05 941.95 1409.15 941.95S1453.59 952.62 1492.99 952.62S1538.87 952.92 1576.84 952.92S1624.68 1038.66 1660.68 1038.66S1705.47 970.22 1744.52 970.22S1791.39 963.52 1828.36 963.52S1876.17 971.09 1912.2 971.09S1959.91 1038.08 1996.05 1038.08S2043.89 1003.81 2079.89 1003.81L2020 1032 L-100 1032 Z;M-100 973.65C-56.41 941.16 -55.52 1022.06 -16.16 1022.06S30.21 997.66 67.68 997.66S113.8 958.77 151.53 958.77S196.91 1042.47 235.37 1042.47S279.74 1033.46 319.21 1033.46S363.39 976.73 403.05 976.73S450.73 1000.04 486.89 1000.04S532.27 983.69 570.73 983.69S617.23 1048.91 654.58 1048.91S696.82 1030.05 738.42 1030.05S784.26 1016.12 822.26 1016.12S865.79 1009.59 906.1 1009.59S952.77 992.69 989.94 992.69S1034.48 941.92 1073.79 941.92S1117.72 1026.54 1157.63 1026.54S1203.44 937.84 1241.47 937.84S1284.93 1012.08 1325.31 1012.08S1368.64 972.48 1409.15 972.48S1451.87 947.1 1492.99 947.1S1537.83 980.42 1576.84 980.42S1623.24 1004.82 1660.68 1004.82S1704.02 950.01 1744.52 950.01S1789.22 1028.87 1828.36 1028.87S1874.11 995.26 1912.2 995.26S1956.52 1023.49 1996.05 1023.49S2040.95 1030.55 2079.89 1030.55L2020 1032 L-100 1032 Z;M-100 959.88C-56.15 959.73 -53.17 1042.91 -16.16 1042.91S31.55 952.77 67.68 952.77S115.61 1030.73 151.53 1030.73S195.68 950.52 235.37 950.52S281.45 1049.81 319.21 1049.81S363.6 988.06 403.05 988.06S445.12 1042.75 486.89 1042.75S533.05 945.51 570.73 945.51S617.2 1035.81 654.58 1035.81S698.78 966.98 738.42 966.98S782.04 1046.6 822.26 1046.6S868.26 944.22 906.1 944.22S949.04 1020.13 989.94 1020.13S1035.05 953.2 1073.79 953.2S1118.48 996.63 1157.63 996.63S1201.67 943.35 1241.47 943.35S1285.07 1015.05 1325.31 1015.05S1369.05 941.95 1409.15 941.95S1453.59 952.62 1492.99 952.62S1538.87 952.92 1576.84 952.92S1624.68 1038.66 1660.68 1038.66S1705.47 970.22 1744.52 970.22S1791.39 963.52 1828.36 963.52S1876.17 971.09 1912.2 971.09S1959.91 1038.08 1996.05 1038.08S2043.89 1003.81 2079.89 1003.81L2020 1032 L-100 1032 Z"></animate>
  <animateTransform attributeName="transform" type="translate" dur="5s" begin="-3.5714285714285716s" repeatCount="indefinite" values="0;10;0" calcMode="spline" keySplines="0.3 0 0.7 1;0.3 0 0.7 1"></animateTransform>
</path><path d="M-100 1074.66C-54.83 1090.39 -52.45 1012.66 -12.19 1012.66S36.6 1011.12 75.62 1011.12S119.91 1011.89 163.43 1011.89S210.7 1009.73 251.24 1009.73S295.34 1052.33 339.05 1052.33S385.83 1096.1 426.86 1096.1S474.97 1067.9 514.67 1067.9S561.05 994.81 602.49 994.81S647.57 1081.09 690.3 1081.09S734.94 1015.26 778.11 1015.26S822.94 1068.07 865.92 1068.07S913.22 1034.52 953.73 1034.52S1000.84 1043.98 1041.54 1043.98S1090.27 1051.81 1129.35 1051.81S1175.37 1029.53 1217.16 1029.53S1266.51 995.22 1304.97 995.22S1354.75 1084.68 1392.78 1084.68S1437.53 1021.23 1480.59 1021.23S1525.43 1091.68 1568.4 1091.68S1616.78 980.54 1656.21 980.54S1702.43 1059.37 1744.02 1059.37S1788.56 1039.52 1831.83 1039.52S1876.08 1050.74 1919.64 1050.74S1963.63 1096.71 2007.46 1096.71S2052.94 1052.96 2095.27 1052.96L2020 1032 L-100 1032 Z" fill="#dee9ca" stroke-width="0">
  <animate attributeName="d" dur="2.5s" repeatCount="indefinite" values="M-100 1074.66C-54.83 1090.39 -52.45 1012.66 -12.19 1012.66S36.6 1011.12 75.62 1011.12S119.91 1011.89 163.43 1011.89S210.7 1009.73 251.24 1009.73S295.34 1052.33 339.05 1052.33S385.83 1096.1 426.86 1096.1S474.97 1067.9 514.67 1067.9S561.05 994.81 602.49 994.81S647.57 1081.09 690.3 1081.09S734.94 1015.26 778.11 1015.26S822.94 1068.07 865.92 1068.07S913.22 1034.52 953.73 1034.52S1000.84 1043.98 1041.54 1043.98S1090.27 1051.81 1129.35 1051.81S1175.37 1029.53 1217.16 1029.53S1266.51 995.22 1304.97 995.22S1354.75 1084.68 1392.78 1084.68S1437.53 1021.23 1480.59 1021.23S1525.43 1091.68 1568.4 1091.68S1616.78 980.54 1656.21 980.54S1702.43 1059.37 1744.02 1059.37S1788.56 1039.52 1831.83 1039.52S1876.08 1050.74 1919.64 1050.74S1963.63 1096.71 2007.46 1096.71S2052.94 1052.96 2095.27 1052.96L2020 1032 L-100 1032 Z;M-100 976.92C-51.36 981.55 -55.05 1049.5 -12.19 1049.5S36.54 1008.8 75.62 1008.8S124 1068.22 163.43 1068.22S210.28 1004.39 251.24 1004.39S297.99 990.11 339.05 990.11S388.48 1061.1 426.86 1061.1S472.25 1057.68 514.67 1057.68S558.92 1021.45 602.49 1021.45S649.93 1079.74 690.3 1079.74S737.91 1089.16 778.11 1089.16S823.51 1079.91 865.92 1079.91S913.69 1003.52 953.73 1003.52S1001.1 1011.19 1041.54 1011.19S1086.53 1002.45 1129.35 1002.45S1178.75 1088.74 1217.16 1088.74S1262.09 1006.92 1304.97 1006.92S1352.66 1071.12 1392.78 1071.12S1437.52 1007.17 1480.59 1007.17S1527.26 1068.58 1568.4 1068.58S1616.37 1026.35 1656.21 1026.35S1700.17 1079.32 1744.02 1079.32S1790.45 999.46 1831.83 999.46S1878.47 1085.1 1919.64 1085.1S1967.92 1051.96 2007.46 1051.96S2053.07 1038.32 2095.27 1038.32L2020 1032 L-100 1032 Z;M-100 1074.66C-54.83 1090.39 -52.45 1012.66 -12.19 1012.66S36.6 1011.12 75.62 1011.12S119.91 1011.89 163.43 1011.89S210.7 1009.73 251.24 1009.73S295.34 1052.33 339.05 1052.33S385.83 1096.1 426.86 1096.1S474.97 1067.9 514.67 1067.9S561.05 994.81 602.49 994.81S647.57 1081.09 690.3 1081.09S734.94 1015.26 778.11 1015.26S822.94 1068.07 865.92 1068.07S913.22 1034.52 953.73 1034.52S1000.84 1043.98 1041.54 1043.98S1090.27 1051.81 1129.35 1051.81S1175.37 1029.53 1217.16 1029.53S1266.51 995.22 1304.97 995.22S1354.75 1084.68 1392.78 1084.68S1437.53 1021.23 1480.59 1021.23S1525.43 1091.68 1568.4 1091.68S1616.78 980.54 1656.21 980.54S1702.43 1059.37 1744.02 1059.37S1788.56 1039.52 1831.83 1039.52S1876.08 1050.74 1919.64 1050.74S1963.63 1096.71 2007.46 1096.71S2052.94 1052.96 2095.27 1052.96L2020 1032 L-100 1032 Z"></animate>
  <animateTransform attributeName="transform" type="translate" dur="2.5s" begin="-2.142857142857143s" repeatCount="indefinite" values="0;10;0" calcMode="spline" keySplines="0.3 0 0.7 1;0.3 0 0.7 1"></animateTransform>
</path></g>
</svg>